<svg width="17" height="17" viewBox="0 0 17 17" fill="none" xmlns="http://www.w3.org/2000/svg">
<g clip-path="url(#clip0_433_1973)">
<path d="M12.5524 2.125L11.5515 0.827333C11.3521 0.570779 11.097 0.362962 10.8054 0.219622C10.5138 0.0762815 10.1934 0.00117799 9.86851 0L7.13151 0C6.80659 0.00117799 6.48621 0.0762815 6.19462 0.219622C5.90303 0.362962 5.64788 0.570779 5.44851 0.827333L4.44763 2.125H12.5524Z" fill="#BDBDBD"/>
<path d="M8.49999 12.7499C10.0648 12.7499 11.3333 11.4814 11.3333 9.91659C11.3333 8.35178 10.0648 7.08325 8.49999 7.08325C6.93518 7.08325 5.66666 8.35178 5.66666 9.91659C5.66666 11.4814 6.93518 12.7499 8.49999 12.7499Z" fill="#BDBDBD"/>
<path d="M13.4583 3.54175H3.54167C2.6027 3.54287 1.70252 3.91637 1.03857 4.58032C0.374625 5.24427 0.00112473 6.14445 0 7.08342L0 13.4584C0.00112473 14.3974 0.374625 15.2976 1.03857 15.9615C1.70252 16.6255 2.6027 16.999 3.54167 17.0001H13.4583C14.3973 16.999 15.2975 16.6255 15.9614 15.9615C16.6254 15.2976 16.9989 14.3974 17 13.4584V7.08342C16.9989 6.14445 16.6254 5.24427 15.9614 4.58032C15.2975 3.91637 14.3973 3.54287 13.4583 3.54175ZM8.5 14.1667C7.65943 14.1667 6.83774 13.9175 6.13883 13.4505C5.43992 12.9835 4.89518 12.3197 4.57351 11.5432C4.25184 10.7666 4.16768 9.91203 4.33166 9.08761C4.49565 8.2632 4.90042 7.50592 5.4948 6.91154C6.08917 6.31717 6.84645 5.9124 7.67087 5.74841C8.49529 5.58442 9.34982 5.66859 10.1264 5.99026C10.903 6.31193 11.5667 6.85667 12.0337 7.55557C12.5007 8.25448 12.75 9.07618 12.75 9.91675C12.7489 11.0436 12.3007 12.1239 11.504 12.9207C10.7072 13.7175 9.62682 14.1656 8.5 14.1667Z" fill="#BDBDBD"/>
</g>
<defs>
<clipPath id="clip0_433_1973">
<rect width="17" height="17" fill="white"/>
</clipPath>
</defs>
</svg>
