<svg width="17" height="17" viewBox="0 0 17 17" fill="none" xmlns="http://www.w3.org/2000/svg">
<g clip-path="url(#clip0_91_749)">
<path d="M17 13.4583V8.74081C17 4.15152 13.5264 0.321563 9.09222 0.0198134C6.63288 -0.14452 4.22172 0.755063 2.48559 2.49402C0.748757 4.23369 -0.149409 6.64273 0.0212989 9.1049C0.332966 13.6056 4.30813 17 9.26788 17H13.4591C15.412 17 17.0008 15.4112 17.0008 13.4583H17ZM8.99659 1.43365C12.6905 1.6844 15.5834 4.89386 15.5834 8.7401V13.4576C15.5834 14.6292 14.63 15.5826 13.4584 15.5826H9.26717C4.99238 15.5826 1.69792 12.8173 1.43372 9.00644C1.29134 6.95298 2.03934 4.94415 3.48717 3.4949C4.82026 2.15969 6.62863 1.41665 8.51067 1.41665C8.67217 1.41665 8.83438 1.42231 8.99588 1.43294L8.99659 1.43365Z" fill="#242424"/>
</g>
<defs>
<clipPath id="clip0_91_749">
<rect width="17" height="17" fill="white"/>
</clipPath>
</defs>
</svg>
