<svg width="17" height="17" viewBox="0 0 17 17" fill="none" xmlns="http://www.w3.org/2000/svg">
<g clip-path="url(#clip0_91_943)">
<path d="M16.7924 0.207512C16.6596 0.0747205 16.4795 0.00012207 16.2916 0.00012207C16.1038 0.00012207 15.9237 0.0747205 15.7908 0.207512L8.49997 7.49839L1.2091 0.207512C1.07626 0.0747205 0.896129 0.00012207 0.708304 0.00012207C0.52048 0.00012207 0.340345 0.0747205 0.207512 0.207512C0.0747205 0.340345 0.00012207 0.52048 0.00012207 0.708304C0.00012207 0.896129 0.0747205 1.07626 0.207512 1.2091L7.49839 8.49997L0.207512 15.7908C0.0747205 15.9237 0.00012207 16.1038 0.00012207 16.2916C0.00012207 16.4795 0.0747205 16.6596 0.207512 16.7924C0.340345 16.9252 0.52048 16.9998 0.708304 16.9998C0.896129 16.9998 1.07626 16.9252 1.2091 16.7924L8.49997 9.50155L15.7908 16.7924C15.9237 16.9252 16.1038 16.9998 16.2916 16.9998C16.4795 16.9998 16.6596 16.9252 16.7924 16.7924C16.9252 16.6596 16.9998 16.4795 16.9998 16.2916C16.9998 16.1038 16.9252 15.9237 16.7924 15.7908L9.50155 8.49997L16.7924 1.2091C16.9252 1.07626 16.9998 0.896129 16.9998 0.708304C16.9998 0.52048 16.9252 0.340345 16.7924 0.207512Z" fill="#242424"/>
</g>
<defs>
<clipPath id="clip0_91_943">
<rect width="17" height="17" fill="white"/>
</clipPath>
</defs>
</svg>
