<svg width="17" height="17" viewBox="0 0 17 17" fill="none" xmlns="http://www.w3.org/2000/svg">
<g clip-path="url(#clip0_53_316)">
<path d="M10.5 9.91668C10.5 10.1045 10.4262 10.2847 10.295 10.4176C10.1637 10.5504 9.98564 10.625 9.79999 10.625H4.2C4.01434 10.625 3.8363 10.5504 3.70502 10.4176C3.57375 10.2847 3.5 10.1045 3.5 9.91668C3.5 9.72882 3.57375 9.54865 3.70502 9.41582C3.8363 9.28298 4.01434 9.20835 4.2 9.20835H9.79999C9.98564 9.20835 10.1637 9.28298 10.295 9.41582C10.4262 9.54865 10.5 9.72882 10.5 9.91668ZM7.69999 12.0417H4.2C4.01434 12.0417 3.8363 12.1163 3.70502 12.2491C3.57375 12.382 3.5 12.5622 3.5 12.75C3.5 12.9379 3.57375 13.118 3.70502 13.2509C3.8363 13.3837 4.01434 13.4583 4.2 13.4583H7.69999C7.88564 13.4583 8.06369 13.3837 8.19496 13.2509C8.32624 13.118 8.39999 12.9379 8.39999 12.75C8.39999 12.5622 8.32624 12.382 8.19496 12.2491C8.06369 12.1163 7.88564 12.0417 7.69999 12.0417ZM14 7.42689V13.4583C13.9989 14.3973 13.6298 15.2975 12.9736 15.9614C12.3175 16.6254 11.4279 16.9989 10.5 17H3.5C2.57208 16.9989 1.68249 16.6254 1.02635 15.9614C0.370217 15.2975 0.0011115 14.3973 0 13.4583V3.54168C0.0011115 2.60272 0.370217 1.70254 1.02635 1.03859C1.68249 0.374641 2.57208 0.00114106 3.5 1.63261e-05H6.66049C7.30422 -0.00166025 7.9419 0.125808 8.53665 0.37505C9.13139 0.624292 9.67142 0.990364 10.1255 1.4521L12.5643 3.92135C13.0208 4.38052 13.3828 4.9268 13.6293 5.52854C13.8757 6.13028 14.0017 6.77552 14 7.42689ZM9.13569 2.45368C8.91539 2.23776 8.66804 2.052 8.39999 1.90118V4.95835C8.39999 5.14621 8.47374 5.32638 8.60501 5.45922C8.73629 5.59205 8.91434 5.66668 9.09999 5.66668H12.1212C11.9721 5.39553 11.7882 5.14545 11.5745 4.92293L9.13569 2.45368ZM12.6 7.42689C12.6 7.31002 12.5776 7.1981 12.5671 7.08335H9.09999C8.54304 7.08335 8.00889 6.85947 7.61507 6.46095C7.22124 6.06244 6.99999 5.52193 6.99999 4.95835V1.44997C6.88659 1.43935 6.77529 1.41668 6.66049 1.41668H3.5C2.94304 1.41668 2.4089 1.64057 2.01507 2.03908C1.62125 2.4376 1.4 2.9781 1.4 3.54168V13.4583C1.4 14.0219 1.62125 14.5624 2.01507 14.961C2.4089 15.3595 2.94304 15.5833 3.5 15.5833H10.5C11.0569 15.5833 11.5911 15.3595 11.9849 14.961C12.3787 14.5624 12.6 14.0219 12.6 13.4583V7.42689Z" fill="#242424"/>
</g>
<defs>
<clipPath id="clip0_53_316">
<rect width="17" height="17" fill="white"/>
</clipPath>
</defs>
</svg>
