<svg width="17" height="17" viewBox="0 0 17 17" fill="none" xmlns="http://www.w3.org/2000/svg">
<g clip-path="url(#clip0_53_369)">
<path d="M8.5 10.621C7.3264 10.621 6.375 11.573 6.375 12.7474V17H10.625V12.7474C10.625 11.573 9.6736 10.621 8.5 10.621Z" fill="#242424"/>
<path d="M12.0417 12.7474V17H14.875C16.0486 17 17 16.048 17 14.8737V8.40895C17.0002 8.04073 16.8572 7.6869 16.6012 7.42234L10.5818 0.910804C9.5197 -0.239072 7.72713 -0.309673 6.57797 0.753091C6.52339 0.803591 6.47079 0.856184 6.42036 0.910804L0.411553 7.42021C0.147854 7.68587 -9.95591e-05 8.04515 5.02639e-08 8.41959V14.8737C5.02639e-08 16.048 0.951402 17 2.125 17H4.95832V12.7474C4.97157 10.8147 6.53102 9.23639 8.41387 9.19094C10.3597 9.14396 12.0268 10.7491 12.0417 12.7474Z" fill="#242424"/>
<path d="M8.5 10.621C7.3264 10.621 6.375 11.573 6.375 12.7474V17H10.625V12.7474C10.625 11.573 9.6736 10.621 8.5 10.621Z" fill="#242424"/>
</g>
<defs>
<clipPath id="clip0_53_369">
<rect width="17" height="17" fill="white"/>
</clipPath>
</defs>
</svg>
