<svg width="17" height="17" viewBox="0 0 17 17" fill="none" xmlns="http://www.w3.org/2000/svg">
<g clip-path="url(#clip0_53_318)">
<path d="M9.44775 0.368168C9.18761 0.13115 8.85 0 8.5 0C8.15 0 7.81239 0.13115 7.55225 0.368168L0 7.24862V14.7056C0 15.3141 0.238809 15.8977 0.663891 16.328C1.08897 16.7583 1.66551 17 2.26667 17H14.7333C15.3345 17 15.911 16.7583 16.3361 16.328C16.7612 15.8977 17 15.3141 17 14.7056V7.24862L9.44775 0.368168ZM10.625 15.5638H6.375V11.9601C6.375 11.3896 6.59888 10.8425 6.9974 10.4391C7.39591 10.0357 7.93641 9.80908 8.5 9.80908C9.06358 9.80908 9.60409 10.0357 10.0026 10.4391C10.4011 10.8425 10.625 11.3896 10.625 11.9601V15.5638ZM15.5833 14.7034C15.5833 14.9316 15.4938 15.1505 15.3344 15.3118C15.175 15.4732 14.9588 15.5638 14.7333 15.5638H12.0417V11.9601C12.0417 11.0093 11.6685 10.0974 11.0043 9.42509C10.3401 8.75276 9.43931 8.37505 8.5 8.37505C7.56069 8.37505 6.65985 8.75276 5.99566 9.42509C5.33147 10.0974 4.95833 11.0093 4.95833 11.9601V15.5638H2.26667C2.04123 15.5638 1.82503 15.4732 1.66563 15.3118C1.50622 15.1505 1.41667 14.9316 1.41667 14.7034V7.88677L8.5 1.43365L15.5833 7.88677V14.7034Z" fill="#242424"/>
</g>
<defs>
<clipPath id="clip0_53_318">
<rect width="17" height="17" fill="white"/>
</clipPath>
</defs>
</svg>
