<svg width="17" height="17" viewBox="0 0 17 17" fill="none" xmlns="http://www.w3.org/2000/svg">
<g clip-path="url(#clip0_53_376)">
<path d="M12.3908 1C11.5935 1.01245 10.8136 1.23596 10.1299 1.64795C9.44612 2.05993 8.88272 2.64581 8.49658 3.34641C8.11044 2.64581 7.54704 2.05993 6.86328 1.64795C6.17952 1.23596 5.39962 1.01245 4.60232 1C3.33133 1.05545 2.13386 1.6138 1.27151 2.55306C0.409162 3.49233 -0.0479608 4.73615 9.76329e-06 6.01279C9.76329e-06 9.24587 3.38873 12.7769 6.23083 15.1709C6.86539 15.7064 7.66771 16 8.49658 16C9.32545 16 10.1278 15.7064 10.7623 15.1709C13.6044 12.7769 16.9932 9.24587 16.9932 6.01279C17.0411 4.73615 16.584 3.49233 15.7217 2.55306C14.8593 1.6138 13.6618 1.05545 12.3908 1Z" fill="#242424"/>
</g>
<defs>
<clipPath id="clip0_53_376">
<rect width="17" height="17" fill="white"/>
</clipPath>
</defs>
</svg>
