<svg width="19" height="19" viewBox="0 0 19 19" fill="none" xmlns="http://www.w3.org/2000/svg">
<g clip-path="url(#clip0_328_1362)">
<g filter="url(#filter0_d_328_1362)">
<path d="M13.3908 2C12.5935 2.01245 11.8136 2.23596 11.1299 2.64795C10.4461 3.05993 9.88272 3.64581 9.49658 4.34641C9.11044 3.64581 8.54704 3.05993 7.86328 2.64795C7.17952 2.23596 6.39962 2.01245 5.60232 2C4.33133 2.05545 3.13386 2.6138 2.27151 3.55306C1.40916 4.49233 0.952039 5.73615 1.00001 7.01279C1.00001 10.2459 4.38873 13.7769 7.23083 16.1709C7.86539 16.7064 8.66771 17 9.49658 17C10.3255 17 11.1278 16.7064 11.7623 16.1709C14.6044 13.7769 17.9932 10.2459 17.9932 7.01279C18.0411 5.73615 17.584 4.49233 16.7217 3.55306C15.8593 2.6138 14.6618 2.05545 13.3908 2ZM10.8525 15.083C10.473 15.404 9.99275 15.58 9.49658 15.58C9.00042 15.58 8.5202 15.404 8.14067 15.083C4.50272 12.0178 2.41611 9.07693 2.41611 7.01279C2.3677 6.11313 2.67551 5.23075 3.27239 4.55809C3.86927 3.88543 4.70681 3.47707 5.60232 3.42207C6.49783 3.47707 7.33537 3.88543 7.93225 4.55809C8.52913 5.23075 8.83694 6.11313 8.78853 7.01279C8.78853 7.20137 8.86313 7.38223 8.99592 7.51557C9.1287 7.64891 9.3088 7.72383 9.49658 7.72383C9.68437 7.72383 9.86446 7.64891 9.99725 7.51557C10.13 7.38223 10.2046 7.20137 10.2046 7.01279C10.1562 6.11313 10.464 5.23075 11.0609 4.55809C11.6578 3.88543 12.4953 3.47707 13.3908 3.42207C14.2864 3.47707 15.1239 3.88543 15.7208 4.55809C16.3177 5.23075 16.6255 6.11313 16.5771 7.01279C16.5771 9.07693 14.4904 12.0178 10.8525 15.0802V15.083Z" fill="white"/>
</g>
</g>
<defs>
<filter id="filter0_d_328_1362" x="-1.00342" y="0" width="21" height="19" filterUnits="userSpaceOnUse" color-interpolation-filters="sRGB">
<feFlood flood-opacity="0" result="BackgroundImageFix"/>
<feColorMatrix in="SourceAlpha" type="matrix" values="0 0 0 0 0 0 0 0 0 0 0 0 0 0 0 0 0 0 127 0" result="hardAlpha"/>
<feOffset/>
<feGaussianBlur stdDeviation="1"/>
<feComposite in2="hardAlpha" operator="out"/>
<feColorMatrix type="matrix" values="0 0 0 0 0 0 0 0 0 0 0 0 0 0 0 0 0 0 0.3 0"/>
<feBlend mode="normal" in2="BackgroundImageFix" result="effect1_dropShadow_328_1362"/>
<feBlend mode="normal" in="SourceGraphic" in2="effect1_dropShadow_328_1362" result="shape"/>
</filter>
<clipPath id="clip0_328_1362">
<rect width="19" height="19" fill="white"/>
</clipPath>
</defs>
</svg>
