<svg width="17" height="17" viewBox="0 0 17 17" fill="none" xmlns="http://www.w3.org/2000/svg">
<g clip-path="url(#clip0_53_320)">
<path d="M12.3908 1C11.5935 1.01245 10.8136 1.23596 10.1299 1.64795C9.44612 2.05993 8.88272 2.64581 8.49658 3.34641C8.11044 2.64581 7.54704 2.05993 6.86328 1.64795C6.17952 1.23596 5.39962 1.01245 4.60232 1C3.33133 1.05545 2.13386 1.6138 1.27151 2.55306C0.409162 3.49233 -0.0479608 4.73615 9.76329e-06 6.01279C9.76329e-06 9.24587 3.38873 12.7769 6.23083 15.1709C6.86539 15.7064 7.66771 16 8.49658 16C9.32545 16 10.1278 15.7064 10.7623 15.1709C13.6044 12.7769 16.9932 9.24587 16.9932 6.01279C17.0411 4.73615 16.584 3.49233 15.7217 2.55306C14.8593 1.6138 13.6618 1.05545 12.3908 1ZM9.85249 14.083C9.47297 14.404 8.99275 14.58 8.49658 14.58C8.00042 14.58 7.5202 14.404 7.14067 14.083C3.50272 11.0178 1.41611 8.07693 1.41611 6.01279C1.3677 5.11313 1.67551 4.23075 2.27239 3.55809C2.86927 2.88543 3.7068 2.47707 4.60232 2.42207C5.49783 2.47707 6.33537 2.88543 6.93225 3.55809C7.52913 4.23075 7.83694 5.11313 7.78853 6.01279C7.78853 6.20137 7.86313 6.38223 7.99592 6.51557C8.1287 6.64891 8.3088 6.72383 8.49658 6.72383C8.68437 6.72383 8.86446 6.64891 8.99725 6.51557C9.13003 6.38223 9.20463 6.20137 9.20463 6.01279C9.15623 5.11313 9.46403 4.23075 10.0609 3.55809C10.6578 2.88543 11.4953 2.47707 12.3908 2.42207C13.2864 2.47707 14.1239 2.88543 14.7208 3.55809C15.3177 4.23075 15.6255 5.11313 15.5771 6.01279C15.5771 8.07693 13.4904 11.0178 9.85249 14.0802V14.083Z" fill="#242424"/>
</g>
<defs>
<clipPath id="clip0_53_320">
<rect width="17" height="17" fill="white"/>
</clipPath>
</defs>
</svg>
