<svg width="12" height="12" viewBox="0 0 12 12" fill="none" xmlns="http://www.w3.org/2000/svg">
<g clip-path="url(#clip0_44_153)">
<path d="M6 3C5.60444 3 5.21776 3.1173 4.88886 3.33706C4.55996 3.55682 4.30362 3.86918 4.15224 4.23463C4.00087 4.60009 3.96126 5.00222 4.03843 5.39018C4.1156 5.77814 4.30608 6.13451 4.58579 6.41421C4.86549 6.69392 5.22186 6.8844 5.60982 6.96157C5.99778 7.03874 6.39992 6.99913 6.76537 6.84776C7.13082 6.69638 7.44318 6.44004 7.66294 6.11114C7.8827 5.78224 8 5.39556 8 5C8 4.46957 7.78929 3.96086 7.41421 3.58579C7.03914 3.21071 6.53043 3 6 3ZM6 6C5.80222 6 5.60888 5.94135 5.44443 5.83147C5.27998 5.72159 5.15181 5.56541 5.07612 5.38268C5.00043 5.19996 4.98063 4.99889 5.01922 4.80491C5.0578 4.61093 5.15304 4.43275 5.29289 4.29289C5.43275 4.15304 5.61093 4.0578 5.80491 4.01921C5.99889 3.98063 6.19996 4.00043 6.38268 4.07612C6.56541 4.15181 6.72159 4.27998 6.83147 4.44443C6.94135 4.60888 7 4.80222 7 5C7 5.26522 6.89464 5.51957 6.70711 5.70711C6.51957 5.89464 6.26522 6 6 6Z" fill="#242424"/>
<path d="M5.99997 12C5.57895 12.0022 5.16353 11.9034 4.78851 11.712C4.41348 11.5206 4.08977 11.2422 3.84447 10.9C1.93897 8.2715 0.972473 6.2955 0.972473 5.0265C0.972473 3.69313 1.50215 2.41436 2.44499 1.47152C3.38783 0.528682 4.6666 -0.000999451 5.99997 -0.000999451C7.33335 -0.000999451 8.61211 0.528682 9.55495 1.47152C10.4978 2.41436 11.0275 3.69313 11.0275 5.0265C11.0275 6.2955 10.061 8.2715 8.15547 10.9C7.91018 11.2422 7.58646 11.5206 7.21144 11.712C6.83642 11.9034 6.421 12.0022 5.99997 12V12ZM5.99997 1.0905C4.95618 1.09169 3.95548 1.50686 3.21741 2.24494C2.47934 2.98301 2.06416 3.98371 2.06297 5.0275C2.06297 6.0325 3.00947 7.891 4.72747 10.2605C4.87332 10.4614 5.06466 10.6249 5.28583 10.7376C5.507 10.8504 5.75172 10.9092 5.99997 10.9092C6.24822 10.9092 6.49294 10.8504 6.71412 10.7376C6.93529 10.6249 7.12663 10.4614 7.27247 10.2605C8.99047 7.891 9.93697 6.0325 9.93697 5.0275C9.93578 3.98371 9.52061 2.98301 8.78254 2.24494C8.04446 1.50686 7.04377 1.09169 5.99997 1.0905V1.0905Z" fill="#242424"/>
</g>
<defs>
<clipPath id="clip0_44_153">
<rect width="12" height="12" fill="white"/>
</clipPath>
</defs>
</svg>
