<svg width="17" height="17" viewBox="0 0 17 17" fill="none" xmlns="http://www.w3.org/2000/svg">
<path d="M1 9C1.55228 9 2 8.55228 2 8C2 7.44772 1.55228 7 1 7C0.447715 7 0 7.44772 0 8C0 8.55228 0.447715 9 1 9Z" fill="#242424"/>
<path d="M8.08337 9C8.63566 9 9.08337 8.55228 9.08337 8C9.08337 7.44772 8.63566 7 8.08337 7C7.53109 7 7.08337 7.44772 7.08337 8C7.08337 8.55228 7.53109 9 8.08337 9Z" fill="#242424"/>
<path d="M15.1666 9C15.7189 9 16.1666 8.55228 16.1666 8C16.1666 7.44772 15.7189 7 15.1666 7C14.6143 7 14.1666 7.44772 14.1666 8C14.1666 8.55228 14.6143 9 15.1666 9Z" fill="#242424"/>
</svg>
