<svg width="8" height="16" viewBox="0 0 8 16" fill="none" xmlns="http://www.w3.org/2000/svg">
<path d="M5.44898 7.18818C5.55351 7.29441 5.63648 7.42081 5.6931 7.56007C5.74972 7.69933 5.77887 7.8487 5.77887 7.99956C5.77887 8.15042 5.74972 8.29979 5.6931 8.43905C5.63648 8.57831 5.55351 8.7047 5.44898 8.81094L0.329895 14.0449C0.225362 14.1512 0.142392 14.2776 0.0857711 14.4168C0.0291505 14.5561 0 14.7054 0 14.8563C0 15.0072 0.0291505 15.1565 0.0857711 15.2958C0.142392 15.4351 0.225362 15.5614 0.329895 15.6677C0.538854 15.8805 0.821521 16 1.11616 16C1.4108 16 1.69346 15.8805 1.90242 15.6677L7.02151 10.4223C7.64807 9.77945 8 8.90808 8 7.99956C8 7.09104 7.64807 6.21966 7.02151 5.57684L1.90242 0.33143C1.69469 0.120306 1.41432 0.00128269 1.12174 2.00272e-05C0.974959 -0.00084877 0.829457 0.027977 0.693576 0.0848475C0.557694 0.141718 0.434105 0.225515 0.329895 0.33143C0.225362 0.437668 0.142392 0.56406 0.0857711 0.70332C0.0291505 0.842579 0 0.991949 0 1.14281C0 1.29367 0.0291505 1.44304 0.0857711 1.5823C0.142392 1.72156 0.225362 1.84795 0.329895 1.95419L5.44898 7.18818Z" fill="#242424"/>
</svg>
