<svg width="17" height="17" viewBox="0 0 17 17" fill="none" xmlns="http://www.w3.org/2000/svg">
<g clip-path="url(#clip0_53_322)">
<path d="M8.5 0C6.81886 0 5.17547 0.498516 3.77766 1.43251C2.37984 2.3665 1.29037 3.69402 0.647028 5.24719C0.00368293 6.80036 -0.164645 8.50943 0.163329 10.1583C0.491303 11.8071 1.30085 13.3217 2.4896 14.5104C3.67834 15.6992 5.1929 16.5087 6.84174 16.8367C8.49057 17.1646 10.1996 16.9963 11.7528 16.353C13.306 15.7096 14.6335 14.6202 15.5675 13.2223C16.5015 11.8245 17 10.1811 17 8.5C16.9976 6.24641 16.1013 4.08582 14.5077 2.49228C12.9142 0.898753 10.7536 0.00243743 8.5 0V0ZM8.5 15.5833C7.09905 15.5833 5.72956 15.1679 4.56471 14.3896C3.39987 13.6112 2.49198 12.505 1.95586 11.2107C1.41974 9.91637 1.27946 8.49214 1.55277 7.11811C1.82609 5.74408 2.50071 4.48195 3.49133 3.49133C4.48195 2.50071 5.74408 1.82608 7.11811 1.55277C8.49215 1.27946 9.91637 1.41973 11.2107 1.95585C12.505 2.49197 13.6113 3.39986 14.3896 4.56471C15.1679 5.72956 15.5833 7.09905 15.5833 8.5C15.5813 10.378 14.8343 12.1785 13.5064 13.5064C12.1785 14.8343 10.378 15.5813 8.5 15.5833Z" fill="#242424"/>
<path d="M8.5 9C9.19223 9 9.86892 8.79473 10.4445 8.41014C11.0201 8.02556 11.4687 7.47893 11.7336 6.83939C11.9985 6.19985 12.0678 5.49612 11.9327 4.81718C11.7977 4.13825 11.4644 3.51461 10.9749 3.02513C10.4854 2.53564 9.86175 2.2023 9.18282 2.06725C8.50388 1.9322 7.80015 2.00152 7.16061 2.26642C6.52107 2.53133 5.97444 2.97993 5.58986 3.55551C5.20527 4.13108 5 4.80777 5 5.5C5.00093 6.42797 5.36997 7.31767 6.02615 7.97385C6.68233 8.63003 7.57203 8.99907 8.5 9ZM8.5 3.16667C8.96149 3.16667 9.41261 3.30352 9.79633 3.55991C10.18 3.8163 10.4791 4.18071 10.6557 4.60707C10.8323 5.03343 10.8785 5.50259 10.7885 5.95521C10.6985 6.40783 10.4762 6.82359 10.1499 7.14992C9.82359 7.47624 9.40783 7.69847 8.95521 7.7885C8.50259 7.87853 8.03343 7.83232 7.60707 7.65572C7.18071 7.47912 6.81629 7.18005 6.5599 6.79633C6.30351 6.41262 6.16667 5.96149 6.16667 5.5C6.16667 4.88116 6.4125 4.28767 6.85008 3.85009C7.28767 3.4125 7.88116 3.16667 8.5 3.16667Z" fill="#242424"/>
<path d="M8.5 9C7.04181 9.00159 5.6438 9.57102 4.6127 10.5834C3.5816 11.5957 3.00162 12.9683 3 14.4C3 14.5591 3.06438 14.7117 3.17899 14.8243C3.2936 14.9368 3.44903 15 3.61111 15C3.77319 15 3.92863 14.9368 4.04323 14.8243C4.15784 14.7117 4.22222 14.5591 4.22222 14.4C4.22222 13.2861 4.67292 12.2178 5.47515 11.4302C6.27739 10.6425 7.36546 10.2 8.5 10.2C9.63454 10.2 10.7226 10.6425 11.5248 11.4302C12.3271 12.2178 12.7778 13.2861 12.7778 14.4C12.7778 14.5591 12.8422 14.7117 12.9568 14.8243C13.0714 14.9368 13.2268 15 13.3889 15C13.551 15 13.7064 14.9368 13.821 14.8243C13.9356 14.7117 14 14.5591 14 14.4C13.9984 12.9683 13.4184 11.5957 12.3873 10.5834C11.3562 9.57102 9.95819 9.00159 8.5 9Z" fill="#242424"/>
</g>
<defs>
<clipPath id="clip0_53_322">
<rect width="17" height="17" fill="white"/>
</clipPath>
</defs>
</svg>
