<svg width="17" height="17" viewBox="0 0 17 17" fill="none" xmlns="http://www.w3.org/2000/svg">
<g clip-path="url(#clip0_53_379)">
<path d="M5.3125 9.20833C4.68207 9.20833 4.0658 9.02139 3.54162 8.67114C3.01744 8.3209 2.60889 7.82308 2.36763 7.24064C2.12638 6.6582 2.06326 6.0173 2.18625 5.39898C2.30924 4.78067 2.61282 4.21271 3.0586 3.76693C3.50438 3.32115 4.07234 3.01757 4.69065 2.89458C5.30896 2.77159 5.94986 2.83471 6.5323 3.07597C7.11474 3.31722 7.61256 3.72577 7.96281 4.24995C8.31306 4.77414 8.5 5.39041 8.5 6.02083C8.49906 6.86592 8.16294 7.67613 7.56537 8.2737C6.9678 8.87127 6.15759 9.2074 5.3125 9.20833ZM9.91667 17H0.708333C0.520472 17 0.340304 16.9254 0.207466 16.7925C0.0746278 16.6597 0 16.4795 0 16.2917V15.9375C0 14.5285 0.559708 13.1773 1.556 12.181C2.55228 11.1847 3.90354 10.625 5.3125 10.625C6.72146 10.625 8.07272 11.1847 9.069 12.181C10.0653 13.1773 10.625 14.5285 10.625 15.9375V16.2917C10.625 16.4795 10.5504 16.6597 10.4175 16.7925C10.2847 16.9254 10.1045 17 9.91667 17ZM12.3958 6.375C11.7654 6.375 11.1491 6.18806 10.625 5.83781C10.1008 5.48756 9.69222 4.98974 9.45097 4.40731C9.20971 3.82487 9.14659 3.18397 9.26958 2.56565C9.39257 1.94734 9.69615 1.37938 10.1419 0.933599C10.5877 0.487819 11.1557 0.184239 11.774 0.0612484C12.3923 -0.061742 13.0332 0.0013811 13.6156 0.242635C14.1981 0.48389 14.6959 0.89244 15.0461 1.41662C15.3964 1.9408 15.5833 2.55707 15.5833 3.1875C15.5824 4.03259 15.2463 4.8428 14.6487 5.44037C14.0511 6.03794 13.2409 6.37406 12.3958 6.375ZM11.3893 7.80654C10.7296 7.89506 10.0952 8.11885 9.52602 8.46391C8.95681 8.80897 8.46499 9.26786 8.08138 9.81184C9.66867 10.5327 10.9159 11.8392 11.5621 13.4583H16.2917C16.4795 13.4583 16.6597 13.3837 16.7925 13.2509C16.9254 13.118 17 12.9379 17 12.75V12.7231C16.9993 12.017 16.8479 11.3192 16.5561 10.6763C16.2642 10.0334 15.8386 9.46014 15.3075 8.99481C14.7765 8.52948 14.1523 8.18279 13.4766 7.97788C12.801 7.77297 12.0893 7.71456 11.3893 7.80654Z" fill="#242424"/>
</g>
<defs>
<clipPath id="clip0_53_379">
<rect width="17" height="17" fill="white"/>
</clipPath>
</defs>
</svg>
