<svg width="15" height="17" viewBox="0 0 15 17" fill="none" xmlns="http://www.w3.org/2000/svg">
<path d="M14.6368 5.52423L9.26244 0.6595C8.79409 0.237094 8.16053 0 7.50014 0C6.83975 0 6.2062 0.237094 5.73784 0.6595L0.36345 5.52423C0.130662 5.73669 0 6.0241 0 6.32368C0 6.62326 0.130662 6.91066 0.36345 7.12313C0.47964 7.22941 0.617876 7.31377 0.770183 7.37134C0.922489 7.42891 1.08585 7.45855 1.25085 7.45855C1.41585 7.45855 1.57921 7.42891 1.73152 7.37134C1.88382 7.31377 2.02206 7.22941 2.13825 7.12313L6.25028 3.39237V15.866C6.25028 16.1668 6.38197 16.4552 6.61636 16.6679C6.85075 16.8805 7.16866 17 7.50014 17C7.83163 17 8.14953 16.8805 8.38393 16.6679C8.61832 16.4552 8.75 16.1668 8.75 15.866V3.39237L12.862 7.12313C13.0957 7.33666 13.4133 7.45721 13.745 7.45828C14.0767 7.45934 14.3952 7.34082 14.6306 7.1288C14.8659 6.91677 14.9988 6.6286 15 6.32769C15.0012 6.02677 14.8705 5.73776 14.6368 5.52423Z" fill="white"/>
</svg>
